PathFileType	4	(X/Y/Z)	D:\Research_projects\MuscleProsody\BulkSports2Dtrack\RetrackedSports2D\p1_sample60_cam3\p1_sample60_cam3_Sports2D\p1_sample60_cam3_Sports2D_m_person00.trc
DataRate	CameraRate	NumFrames	NumMarkers	Units	OrigDataRate	OrigDataStartFrame	OrigNumFrames
60	60	6	22	m	60	682	780
Frame#	Time	Hip			RHip			RKnee			RAnkle			RBigToe			RSmallToe			RHeel			LHip			LKnee			LAnkle			LBigToe			LSmallToe			LHeel			Neck			Head			Nose			RShoulder			RElbow			RWrist			LShoulder			LElbow			LWrist		
		X1	Y1	Z1	X2	Y2	Z2	X3	Y3	Z3	X4	Y4	Z4	X5	Y5	Z5	X6	Y6	Z6	X7	Y7	Z7	X8	Y8	Z8	X9	Y9	Z9	X10	Y10	Z10	X11	Y11	Z11	X12	Y12	Z12	X13	Y13	Z13	X14	Y14	Z14	X15	Y15	Z15	X16	Y16	Z16	X17	Y17	Z17	X18	Y18	Z18	X19	Y19	Z19	X20	Y20	Z20	X21	Y21	Z21	X22	Y22	Z22
682	11.366666666666667	0.5019449577087003	0.8034093115357497	0.0301	0.4371702445097986	0.7523826387410947	0.0301	0.6108374311172438	0.42127931352463505	0.129	0.7932236823603895	0.15130942117496293	0.023	0.7230212210452375	-0.002916223100782193	0.2179	0.6983021851877219	0.0192351176027496	0.1804	0.852359484799817	0.12307683263351094	-0.0119	0.5978654986768172	0.8132145977074211	0.0301	0.7561690165115379	0.4608622582256488	0.129	0.9382807059925393	0.15217049564894683	0.023	0.8712853904945763	-0.006629010849285944	0.2179	0.9439675400274844	0.010069419962878511	0.1804	0.9935543152265885	0.12130762653818215	-0.0119	0.2329003039074394	1.365641715789936	0.0008	0.01890879698213862	1.560337070715613	0.0655	0.0205757707520736	1.3833043169503427	0.1076	0.1727867807161475	1.218175707027642	-0.01275	0.15141350125585368	0.9806898575507315	0.0702	-0.0287317717896695	0.8541222153478288	0.1076	0.4366506790034649	1.3589644292974916	-0.01275	0.6443539605291331	1.126544954010332	0.0702	0.5420652808926057	0.867202238526539	0.1076
683	11.383333333333333	0.5004058742473615	0.8027425410832042	0.0301	0.4356947774851635	0.7521751466579994	0.0301	0.6106601999373239	0.42045418898681586	0.129	0.7931410041198911	0.15047334404559257	0.023	0.7230094071027188	-0.003147028903541818	0.2179	0.6988009965392712	0.01898453614845255	0.1804	0.8529171314369307	0.12203501289397947	-0.0119	0.5965266479439602	0.8128514868411171	0.0301	0.7555233017643441	0.46009285848942805	0.129	0.9382439853341366	0.15141737370611796	0.023	0.8716527360734877	-0.007344022002122983	0.2179	0.9442334197512869	0.009606516890910854	0.1804	0.9943629384602087	0.12115751854108826	-0.0119	0.23280236993848416	1.3657187655026002	0.0008	0.018999703255090844	1.560826694576676	0.0655	0.020807075577200476	1.3832670331495664	0.1076	0.17282397298434476	1.2185970371880401	-0.01275	0.15783648904982236	0.9806445596255519	0.0702	-0.00628252846099603	0.8556367591427552	0.1076	0.43721644807739607	1.3583829901410414	-0.01275	0.6428697050751844	1.1248240785195307	0.0702	0.5387326887261605	0.8666855939682647	0.1076
684	11.4	0.4987193918148669	0.801891276014541	0.0301	0.4341111799140247	0.7516707767225123	0.0301	0.6104694542840012	0.4194494129494209	0.129	0.7930355885259611	0.14964997935543095	0.023	0.7231431935521964	-0.003252771618045245	0.2179	0.6993712548889256	0.018814143433120146	0.1804	0.8534677774746878	0.12091079475105371	-0.0119	0.5951565280762526	0.8122343711180535	0.0301	0.7548985853652663	0.45930863702263763	0.129	0.9380112980169509	0.15058558124707264	0.023	0.8718398492096107	-0.00828387873494545	0.2179	0.9443151786933208	0.00907085218590629	0.1804	0.9949519742507288	0.12095595461452215	-0.0119	0.2326753057363865	1.3657609226639802	0.0008	0.019127082826989415	1.5612627354327826	0.0655	0.020897615726173237	1.3831443206958856	0.1076	0.1728910887487128	1.219063815579965	-0.01275	0.164775631521517	0.9807016680742846	0.0702	0.018175300598565283	0.8564586672200349	0.1076	0.43779271991442	1.357734170274727	-0.01275	0.6414201657005001	1.123047395571306	0.0702	0.535807454882719	0.8659839650628491	0.1076
685	11.416666666666666	0.4969468228718623	0.8008667588510591	0.0301	0.4324825844985108	0.7508514972790183	0.0301	0.6102778321221194	0.41828428793982575	0.129	0.7929044760106352	0.14887240906150057	0.023	0.7234032485769082	-0.0032034199726951066	0.2179	0.700001651279223	0.01874388767696363	0.1804	0.853968560150242	0.11971400906597729	-0.0119	0.5938164273136504	0.8113376844510947	0.0301	0.754336262652185	0.45849320792901116	0.129	0.937584700032794	0.14971525595227753	0.023	0.871784846473159	-0.009389306022720268	0.2179	0.9441532680875856	0.008499910546512602	0.1804	0.9952913921058654	0.12068216459250383	-0.0119	0.2325682544851192	1.3658105513259244	0.0008	0.019306923348048805	1.5616207425574655	0.0655	0.02086321995741054	1.3829311374837463	0.1076	0.17300795772061306	1.2196007744812054	-0.01275	0.17212781882305778	0.9809057135668937	0.0702	0.04392794819985803	0.856424229756737	0.1076	0.4383523603759506	1.357029016021823	-0.01275	0.6400219471280959	1.121224453668075	0.0702	0.533403214217892	0.8650468637791977	0.1076
686	11.433333333333334	0.495164421792934	0.7996847523233797	0.0301	0.4308894174690561	0.7497246459282421	0.0301	0.6100930581723504	0.4169914864638721	0.129	0.7927573102319379	0.14816739731211817	0.023	0.7237510704696353	-0.0030020231247706664	0.2179	0.7006825516929128	0.01876591992637354	0.1804	0.8543765477840898	0.11843448759417156	-0.0119	0.5925587483202319	0.8101484279029632	0.0301	0.7538750049280317	0.4576398000562502	0.129	0.9369934386323993	0.14885914746329496	0.023	0.8714866594838221	-0.010560959914627424	0.2179	0.9437495592798074	0.007952188308607078	0.1804	0.9953778004189713	0.1203283090348572	-0.0119	0.23252854662019526	1.3659069474868202	0.0008	0.01954247504122652	1.5618851088869241	0.0655	0.020731673772644007	1.3826292415520451	0.1076	0.1731675359594731	1.2201895542472663	-0.01275	0.17973046015892427	0.9812301183148431	0.0702	0.07017960335426807	0.855339803178137	0.1076	0.4388820104937724	1.3562844992150278	-0.01275	0.6386898610630274	1.1193634056876234	0.0702	0.531638647325413	0.8638257824774386	0.1076
687	11.45	0.4934524784886717	0.7983526236162068	0.0301	0.42942219696456346	0.7483094923281179	0.0301	0.6099290198468195	0.4156121956799985	0.129	0.7926051069168559	0.14755670869767548	0.023	0.7241369897652254	-0.0026632345940113783	0.2179	0.7014093508839193	0.01886363206687474	0.1804	0.8546675538455167	0.11705867805963258	-0.0119	0.5914230164476726	0.8086652174823221	0.0301	0.7535461791230805	0.4567551573643728	0.129	0.9362805253355014	0.1480751002249243	0.023	0.8709958247500743	-0.01168358024401472	0.2179	0.9431554493522292	0.007487776047511623	0.1804	0.9952286594572782	0.11990778959337034	-0.0119	0.23258875489235895	1.366063708640952	0.0008	0.019835123165337237	1.5620454279636777	0.0655	0.020539293677235136	1.3822496340460486	0.1076	0.17334109643162213	1.220774429219343	-0.01275	0.1873791904240293	0.9815596203264376	0.0702	0.09613830204017638	0.8530028396051887	0.1076	0.43937006262555756	1.3555190321868864	-0.01275	0.6374271336550938	1.1174729687484712	0.0702	0.530627369650251	0.8622686973473176	0.1076
